<svg xmlns="http://www.w3.org/2000/svg" xmlns:xlink="http://www.w3.org/1999/xlink" version="1.1" x="0px" y="0px" viewBox="0 0 700 875" style="enable-background:new 0 0 700 700;" xml:space="preserve"><path d="M659.9,332.2v-12.3h-19.8v-31.2h3.5L633,270.1v-17.9H483V218h2v-22.2h-5.6v-32.7h4.2v-17.4h-4.4c-0.8-7.5-5-14.8-5.6-15.8  l-9.5-12.3v-17.3h-13.5v17.9l-8.3,9.4c-5.8,6.6-7.8,13.4-8.4,18.1h-3.3v17.4h4.4v17.5H263v-17.5h4.3v-17.4h-3.2  c-0.8-7.5-5-14.8-5.6-15.8l-9.5-12.3v-17.3h-13.5v17.9l-8.3,9.4c-5.8,6.6-7.8,13.4-8.4,18.1h-4.5v17.4h4.3v32.7h-8V218h3.9v34.2  h-156v18l-4.8,8.8h-2.4v40.9H39.6v12.3h-3l12.1,24.2l-2.2,178.2H202h4.9h62.4h4.9h21.2V432.5V432c0-0.2-1.9-18.4,4.2-37.2  c7.9-24.1,24.9-37.9,50.6-41.2c6.9,1.9,53.1,16.6,53.5,72.3v108.8h26.1v-0.1h62.4h4.9h154.5V355.8l11.7-23.6L659.9,332.2  L659.9,332.2z M475.3,205.6v2.7h-29.7v-2.7H475.3z M473.4,218.3V252h-27.7v-33.7H473.4z M444.7,195.8v-32.7h25v32.7H444.7z   M449.7,134l7.4-8.4h1.1l7.3,9.4c1.5,2.6,3.4,6.9,4,10.6h-25.7C444.4,142.6,445.9,138.4,449.7,134z M440.3,152.4h33.4v4.1h-33.4  V152.4z M263.1,190.4L263.1,190.4L263.1,190.4h172l0,0l0,0v5.4l0,0v12.8h-3.5l0,0H264.4l0,0h-1.3v-12.8l0,0V190.4z M261.6,218.3H436  V252H261.6V218.3z M234.5,134l7.4-8.4h1.1l7.3,9.4c1.5,2.6,3.4,6.9,4,10.6h-25.7C229.2,142.6,230.8,138.4,234.5,134z M224.3,152.4  h33.4v4.1h-33.4L224.3,152.4L224.3,152.4z M253.4,163.2v32.7h-25v-32.7H253.4z M220.3,205.6h34.4v2.7h-34.4L220.3,205.6L220.3,205.6  z M251.8,218.3V252h-27.6v-33.7H251.8z M68.3,261.9h555v4.6h-555L68.3,261.9L68.3,261.9z M66.3,276.2h559l1.6,2.7H484.5v-0.2h-47.1  v0.2H261.6v-0.2h-47.1v0.2H64.8L66.3,276.2z M482.8,329.3v12.6l0,0v141h-42.7V329.3H482.8z M447.2,319.3v-30.7h27.7v30.7H447.2z   M484.5,492.6V513h-46.9v-20.4H484.5z M414.3,288.7v30.9h-11v-30.9H414.3z M393.6,288.7v30.9h-11v-30.9H393.6z M372.8,288.7v30.9  h-11v-30.9H372.8z M352.1,288.7v30.9h-11v-30.9H352.1z M331.3,288.7v30.9h-11v-30.9H331.3z M310.6,288.7v30.9h-11v-30.9H310.6z   M289.8,288.7v30.9h-11v-30.9H289.8z M259.5,329.3v153.5h-42.7V329.3H259.5z M224.3,319.3v-30.7H252v30.7H224.3z M261.5,492.6V513  h-46.9v-20.4H261.5z M49.3,329.6H207v2.6H49.3V329.6z M207,341.9v8.1H56.3l-4-8.1H207z M183.1,524.9h-55V408.5v-0.6  c0-0.1-1-13.7,26.4-27.6c9.3,3.5,28.2,13.3,28.7,26L183.1,524.9L183.1,524.9z M207,482.9h-2V513h-3v11.9h-9.2V406  c-0.9-23.2-35.7-35.2-37.2-35.7l-1.9-0.6l-1.8,0.9c-33.8,16.5-34,34.5-33.6,38.1v116.2H56.2l2.1-165.2H207V482.9z M207,319.5H61.1  v-30.9h153.4v30.7H207V319.5z M264.5,524.9h-52.7v-2.2h52.7V524.9z M269.1,319.3h-7.4v-30.7h7.4V319.3z M430.4,482.9H428V513h-3v12  h-11.6v-99.2c-0.5-66.7-61.2-81.8-61.8-82l-0.8-0.2l-0.8,0.1c-70,8.2-64.7,83.4-64.2,88.9v92.2h-11.5V513h-2.9v-30.1h-2.1V329.3  h161.2v153.6H430.4z M430.4,319.5H424v-30.9h13.4v30.7h-7.1v0.2H430.4z M487.4,524.9h-52.7v-2.2h52.7V524.9z M484.5,319.3v-30.7  h145.9v30.9H492.5v-0.2L484.5,319.3L484.5,319.3z M564.6,524.9h-55V408.5v-0.6c0-0.1-1-13.7,26.4-27.6c9.3,3.5,28.2,13.3,28.7,26  v118.6H564.6z M642,524.9h-67.7V406c-0.9-23.2-35.7-35.2-37.2-35.7l-1.9-0.6l-1.8,0.9c-33.8,16.5-33.9,34.5-33.6,38.1v116.2h-2.7  V513h-2.9v-30.1h-1.7V359.7H642V524.9z M643.7,350H493v-8.1h154.8L643.7,350z M650.2,332.2H492.5v-2.6h157.7V332.2z"/>
</svg>