<svg xmlns="http://www.w3.org/2000/svg" xmlns:xlink="http://www.w3.org/1999/xlink" version="1.1" x="0px" y="0px" viewBox="0 0 100 125" style="enable-background:new 0 0 100 100;" xml:space="preserve"><g><g><g><path d="M14.5,81.6c-0.6,0-1.1-0.5-1.1-1.1V68.8c0-0.6,0.5-1.1,1.1-1.1c0.6,0,1.1,0.5,1.1,1.1v11.7     C15.5,81.1,15.1,81.6,14.5,81.6z"/></g><g><path d="M14.5,64.7c-0.6,0-1.1-0.5-1.1-1.1v-25c0-0.6,0.5-1.1,1.1-1.1h71.1c0.6,0,1.1,0.5,1.1,1.1v24.7     c0,0.6-0.5,1.1-1.1,1.1c-0.6,0-1.1-0.5-1.1-1.1V39.7H15.5v23.9C15.5,64.2,15.1,64.7,14.5,64.7z"/></g><g><path d="M85.5,81.6c-0.6,0-1.1-0.5-1.1-1.1V68.8c0-0.6,0.5-1.1,1.1-1.1c0.6,0,1.1,0.5,1.1,1.1v11.7     C86.6,81.1,86.1,81.6,85.5,81.6z"/></g><g><path d="M85.5,100H62c-0.6,0-1.1-0.5-1.1-1.1V85.7c0-0.6,0.5-1.1,1.1-1.1s1.1,0.5,1.1,1.1v12.2h21.4V85.7     c0-0.6,0.5-1.1,1.1-1.1c0.6,0,1.1,0.5,1.1,1.1v13.2C86.6,99.5,86.1,100,85.5,100z"/></g><g><path d="M62,81.6c-0.6,0-1.1-0.5-1.1-1.1V68.8c0-0.6,0.5-1.1,1.1-1.1s1.1,0.5,1.1,1.1v11.7     C63.1,81.1,62.6,81.6,62,81.6z"/></g><g><path d="M38,100H14.5c-0.6,0-1.1-0.5-1.1-1.1V86.1c0-0.6,0.5-1.1,1.1-1.1c0.6,0,1.1,0.5,1.1,1.1v11.8h21.4V62     c0-7.2,5.9-13.1,13.1-13.1S63.1,54.8,63.1,62v1.6c0,0.6-0.5,1.1-1.1,1.1s-1.1-0.5-1.1-1.1V62c0-6-4.9-10.9-10.9-10.9     c-6,0-10.9,4.9-10.9,10.9v36.9C39.1,99.5,38.6,100,38,100z"/></g><g><path d="M85.5,39.7c-0.2,0-0.5-0.1-0.7-0.2c-0.5-0.4-0.5-1.1-0.2-1.5l4.9-6.1H10.4l4.9,6.1     c0.4,0.5,0.3,1.2-0.2,1.5c-0.5,0.4-1.2,0.3-1.5-0.2l-6.3-7.9c-0.3-0.3-0.3-0.8-0.1-1.1c0.2-0.4,0.6-0.6,1-0.6h83.6     c0.4,0,0.8,0.2,1,0.6c0.2,0.4,0.1,0.8-0.1,1.1l-6.3,7.9C86.2,39.6,85.9,39.7,85.5,39.7z"/></g><g><path d="M85.5,31.8c-0.6,0-1.1-0.5-1.1-1.1V23H15.5v7.7c0,0.6-0.5,1.1-1.1,1.1c-0.6,0-1.1-0.5-1.1-1.1v-8.8     c0-0.6,0.5-1.1,1.1-1.1h71.1c0.6,0,1.1,0.5,1.1,1.1v8.8C86.6,31.4,86.1,31.8,85.5,31.8z"/></g><g><path d="M74.4,23c-0.6,0-1.1-0.5-1.1-1.1V11.2H26.7v10.8c0,0.6-0.5,1.1-1.1,1.1s-1.1-0.5-1.1-1.1V10.1     C24.5,9.5,25,9,25.6,9h48.8c0.6,0,1.1,0.5,1.1,1.1v11.8C75.5,22.5,75,23,74.4,23z"/></g><g><path d="M63.4,11.2c-0.6,0-1.1-0.5-1.1-1.1c0-4.4-5.5-7.9-12.4-7.9c-6.8,0-12.4,3.5-12.4,7.9     c0,0.6-0.5,1.1-1.1,1.1s-1.1-0.5-1.1-1.1C35.5,4.5,42,0,50,0c8,0,14.5,4.5,14.5,10.1C64.5,10.7,64,11.2,63.4,11.2z"/></g><g><path d="M38,69.9H14.5c-0.3,0-0.5-0.1-0.7-0.2l-6.3-5.2c-0.4-0.3-0.5-0.8-0.3-1.2c0.2-0.4,0.6-0.7,1-0.7H38     c0.6,0,1.1,0.5,1.1,1.1c0,0.6-0.5,1.1-1.1,1.1H11.2l3.6,3H38c0.6,0,1.1,0.5,1.1,1.1S38.6,69.9,38,69.9z"/></g><g><path d="M38,86.8H14.5c-0.3,0-0.5-0.1-0.7-0.2l-6.3-5.2C7.1,81,7,80.5,7.2,80.1c0.2-0.4,0.6-0.7,1-0.7H38     c0.6,0,1.1,0.5,1.1,1.1s-0.5,1.1-1.1,1.1H11.2l3.6,3H38c0.6,0,1.1,0.5,1.1,1.1S38.6,86.8,38,86.8z"/></g><g><path d="M85.5,69.9H62c-0.6,0-1.1-0.5-1.1-1.1v-5.2c0-0.6,0.5-1.1,1.1-1.1h29.8c0.5,0,0.9,0.3,1,0.7     c0.2,0.4,0,0.9-0.3,1.2l-6.3,5.2C86,69.8,85.8,69.9,85.5,69.9z M63.1,67.7h22.1l3.6-3H63.1V67.7z"/></g><g><path d="M85.5,86.8H62c-0.6,0-1.1-0.5-1.1-1.1v-5.2c0-0.6,0.5-1.1,1.1-1.1h29.8c0.5,0,0.9,0.3,1,0.7     c0.2,0.4,0,0.9-0.3,1.2l-6.3,5.2C86,86.7,85.8,86.8,85.5,86.8z M63.1,84.6h22.1l3.6-3H63.1V84.6z"/></g></g><g><path d="M73.8,56.3c-2.9,0-5.2-2.3-5.2-5.2c0-2.9,2.3-5.2,5.2-5.2c2.9,0,5.2,2.3,5.2,5.2    C78.9,54,76.6,56.3,73.8,56.3z M73.8,48.1c-1.7,0-3,1.4-3,3c0,1.7,1.4,3,3,3c1.7,0,3-1.4,3-3C76.8,49.4,75.4,48.1,73.8,48.1z"/></g><g><path d="M26.5,56.3c-2.9,0-5.2-2.3-5.2-5.2c0-2.9,2.3-5.2,5.2-5.2c2.9,0,5.2,2.3,5.2,5.2    C31.7,54,29.4,56.3,26.5,56.3z M26.5,48.1c-1.7,0-3,1.4-3,3c0,1.7,1.4,3,3,3c1.7,0,3-1.4,3-3C29.6,49.4,28.2,48.1,26.5,48.1z"/></g></g>
</svg>