<svg xmlns="http://www.w3.org/2000/svg" xmlns:xlink="http://www.w3.org/1999/xlink" version="1.1" x="0px" y="0px" viewBox="0 0 100 125" enable-background="new 0 0 100 100" xml:space="preserve"><g><g><g><path d="M75.9613647,18.1496124c4.9553986,3.0825958,1.5720596,3.9472256,1.5720596,3.9472256     s-2.235054,0.4271889-3.8822937-0.372509c-1.6438217-0.7996979-9.4357529,5.256134-13.1198311,6.8555317     c-1.6404076,0.7108421-4.3402405,1.5720539-7.1357651,1.9924088v13.0890732h19.8899193v53.3781242h-2.2008743V74.9247437     V62.7003059V45.7255211H52.9785957v24.165226h0.6014824v6.6607361h-0.6014824v20.4879837h-1.5173759V76.5514832h-0.6049004     v-6.6607361h0.6049004v-24.165226H40.4021492v51.3139458h-2.2008781V43.6613426h12.8703537V30.8080788     c-2.6930008,0.1298637-5.2253761-0.3109951-6.6983261-1.865963c-3.414093-3.5918045-3.3218193-5.3757477-3.5644646-8.4754314     c-0.2426414-3.0996838-1.7736893-8.4959354-1.7736893-8.4959354s-1.2473907-5.1946187,2.3170738-2.3580828     c3.5644646,2.8399525,5.283474,4.0634222,5.283474,4.0634222s5.6696548,2.6827469,5.9703941-2.9151382l0.6254044-6.6026344     l0.1059456-0.9261458c0,0,1.0867691-1.4421902,2.4571915,0.0751853l0.2426414,2.9800708     c0,0,0.372509,0.7689404,0.7860298-0.020505l0.393013-2.9595659c0,0,0.9090576-1.4695302,1.8181152,0.0205052l0.3075752,3.014246     c0,0,0.2528992,0.7689404,0.8441277,0l0.5536385-3.0347512c0,0,0.8612099-1.4148501,1.7600174,0l0.2153015,0.9705737v14.6167011     l5.0134888,0.1230297C67.7285767,19.0176601,71.0093918,15.0704327,75.9613647,18.1496124z"/></g><g><path fill="none" stroke="#000000" stroke-width="0.1708756" stroke-miterlimit="10" d="M73.2854538,97.0394669V43.6613426     H53.3955345V30.5722694c2.7955246-0.4203548,5.4953575-1.2815666,7.1357651-1.9924088     c3.6840782-1.5993977,11.4760094-7.6552296,13.1198311-6.8555317c1.6472397,0.7996979,3.8822937,0.372509,3.8822937,0.372509     s3.3833389-0.8646297-1.5720596-3.9472256c-4.951973-3.0791798-8.2327881,0.8680477-8.2327881,0.8680477l-5.0134888-0.1230297     V4.2779288l-0.2153015-0.9705737c-0.8988075-1.4148501-1.7600174,0-1.7600174,0l-0.5536385,3.0347512     c-0.5912285,0.7689404-0.8441277,0-0.8441277,0l-0.3075752-3.014246     c-0.9090576-1.4900354-1.8181152-0.0205052-1.8181152-0.0205052l-0.393013,2.9595659     c-0.4135208,0.7894454-0.7860298,0.020505-0.7860298,0.020505l-0.2426414-2.9800708     c-1.3704224-1.5173755-2.4571915-0.0751853-2.4571915-0.0751853l-0.1059456,0.9261458l-0.6254044,6.6026344     c-0.3007393,5.5978851-5.9703941,2.9151382-5.9703941,2.9151382s-1.7190094-1.2234697-5.283474-4.0634222     c-3.5644646-2.8365359-2.3170738,2.3580828-2.3170738,2.3580828s1.5310478,5.3962517,1.7736893,8.4959354     c0.2426453,3.0996838,0.1503716,4.8836269,3.5644646,8.4754314c1.47295,1.5549679,4.0053253,1.9958267,6.6983261,1.865963     v12.8532639H38.2012711v53.3781242"/><path fill="none" stroke="#000000" stroke-width="0.1708756" stroke-miterlimit="10" d="M71.0845795,74.9247437     c0,0.8953934-0.7279358,1.6267395-1.6267395,1.6267395H57.2368164c-0.8988037,0-1.6267357-0.7313461-1.6267357-1.6267395     V62.7003059c0-0.8988075,0.727932-1.6267395,1.6267357-1.6267395H69.45784c0.8988037,0,1.6267395,0.727932,1.6267395,1.6267395"/><polyline fill="none" stroke="#000000" stroke-width="0.1708756" stroke-miterlimit="10" points="40.4021492,97.0394669      40.4021492,45.7255211 51.4612198,45.7255211 51.4612198,69.8907471 50.8563194,69.8907471 50.8563194,76.5514832      51.4612198,76.5514832 51.4612198,97.0394669    "/><polyline fill="none" stroke="#000000" stroke-width="0.1708756" stroke-miterlimit="10" points="52.9785957,97.0394669      52.9785957,76.5514832 53.5800781,76.5514832 53.5800781,69.8907471 52.9785957,69.8907471 52.9785957,45.7255211      71.0845795,45.7255211 71.0845795,62.7003059 71.0845795,74.9247437 71.0845795,97.0394669    "/><line fill="none" stroke="#000000" stroke-width="0.1708756" stroke-miterlimit="10" x1="73.7229004" y1="76.5514832" x2="95.359169" y2="76.5514832"/><line fill="none" stroke="#000000" stroke-width="0.1708756" stroke-miterlimit="10" x1="15.5500002" y1="76.5514832" x2="37.4152451" y2="76.5514832"/><polyline fill="none" stroke="#000000" stroke-width="0.1708756" stroke-miterlimit="10" points="15.5500002,97.0394669      38.2012711,97.0394669 40.4021492,97.0394669 51.4612198,97.0394669 52.9785957,97.0394669 71.0845795,97.0394669      73.2854538,97.0394669 95.359169,97.0394669    "/></g></g></g>
</svg>